ply
format ascii 1.0
element vertex 39
property float x
property float y
property float z
end_header
4.68911 0.0477621 2.43775
5.54323 -0.0758396 2.12407
6.03708 -0.113126 1.99735
6.63887 -0.181041 1.83351
8.85864 0.573 2.87814
7.42343 0.946637 2.01086
5.22849 0.0367112 5.47617
4.59465 0.0748405 5.27533
3.03252 -0.0183539 3.60923
2.70118 -0.052088 3.33973
2.68115 -0.162286 3.14767
2.44096 -0.0315213 3.45768
2.98299 -0.129537 3.05198
3.34336 -0.0912826 2.95267
3.72832 -0.0873427 2.76603
9.2055 0.392824 3.93753
4.07568 0.0408581 2.74164
4.51285 0.0377916 2.28151
5.59971 1.29198 2.50195
9.09427 -0.252076 4.47362
10.0024 -0.593741 6.09248
8.1411 -0.259446 3.99092
8.91039 -0.192108 4.23951
5.1753 0.0260816 1.47556
6.05552 -0.0324572 1.3024
8.21961 -0.418709 4.22725
7.97122 -0.475171 4.52096
8.00715 -0.495801 4.78047
8.01967 -0.592085 4.85094
8.10245 -0.490512 4.89578
7.52537 -0.842444 1.29558
8.05688 -1.05546 0.923311
7.18295 -0.646257 1.49748
6.92075 -0.305933 1.42615
8.81833 -1.00047 1.2968
8.90048 -0.915062 1.7635
8.8764 -0.79931 2.36781
8.64328 -1.05723 0.977436
7.79502 -0.534245 3.78855
