ply
format ascii 1.0
element vertex 11
property float x
property float y
property float z
property uchar diffuse_red
property uchar diffuse_green
property uchar diffuse_blue
end_header
-0.0735976 -0.000208112 -0.0780343 255 0 255
0.410716 -0.83334 0.298314 0 255 0
0.731216 -0.0619639 0.0300249 255 0 255
-0.833287 4.58048e-005 0.568341 0 255 0
1.81362 0.0015351 -0.173197 255 0 255
1.02686 1.18581 0.0587216 255 0 255
0.430166 1.19629 0.0526182 0 255 0
0.577973 -1.43962 1.19745 255 0 255
2.45627 -0.00125976 0.67144 0 255 0
2.40525 0.226575 1.48462 0 255 0
-1.50894 -0.375239 1.30053 0 255 0
